<?xml version="1.0" encoding="utf-8"?>
<!-- Generator: Adobe Illustrator 26.2.1, SVG Export Plug-In . SVG Version: 6.00 Build 0)  -->
<svg version="1.1" id="Capa_1" xmlns="http://www.w3.org/2000/svg" xmlns:xlink="http://www.w3.org/1999/xlink" x="0px" y="0px"
	 viewBox="0 0 190.24 71.25" style="enable-background:new 0 0 190.24 71.25;" xml:space="preserve">
<style type="text/css">
	.st0{fill:#FFDA00;}
	.st1{fill:#FFFFFF;}
</style>
<g>
	<g>
		<g>
			<g>
				<g>
					<g>
						<path class="st0" d="M85.55,21.24h10.18v11.31H85.55v21.09c0,4.7,1.17,5.87,5.87,5.87c1.47,0,2.84-0.1,4.31-0.39v10.86
							c-2.35,0.39-5.38,0.49-8.12,0.49c-8.52,0-15.95-1.96-15.95-12.04V32.55h-8.42V21.24h8.42V4.11h13.9V21.24z"/>
						<g>
							<g>
								<path class="st1" d="M113.57,47.96c0.39,8.81,4.7,12.82,12.43,12.82c5.58,0,10.08-3.43,10.96-6.56h12.23
									c-3.92,11.94-12.23,17.03-23.68,17.03c-15.95,0-25.84-10.96-25.84-26.62c0-15.17,10.47-26.72,25.84-26.72
									c17.23,0,25.54,14.48,24.57,30.05H113.57z M136.17,39.15c-1.27-7.05-4.31-10.77-11.06-10.77c-8.81,0-11.35,6.85-11.55,10.77
									H136.17z"/>
							</g>
						</g>
						<g>
							<g>
								<path class="st1" d="M157.65,19.28h13.21v9.4h0.2c2.54-6.36,9.4-10.77,16.15-10.77c0.98,0,2.15,0.2,3.03,0.49v12.92
									c-1.27-0.29-3.33-0.49-4.99-0.49c-10.18,0-13.7,7.34-13.7,16.25v22.8h-13.9V19.28z"/>
							</g>
						</g>
					</g>
				</g>
				<g>
					<path class="st0" d="M8.32,32.55H0V21.24h8.32v-5.87C8.32,6.46,13.9,0,25.25,0c2.45,0,4.99,0.29,7.34,0.39v10.37
						c-1.66-0.2-3.33-0.29-5.09-0.29c-3.72,0-5.29,1.57-5.29,5.77v4.99h9.59v11.31h-9.59v37.33H8.32V32.55z"/>
				</g>
			</g>
		</g>
		<g>
			<path class="st0" d="M41.69,21.39h13.79v48.23H41.69V21.39z"/>
		</g>
		<path class="st0" d="M56.93,8.59c0,4.52-3.66,8.18-8.18,8.18c-4.52,0-8.18-3.66-8.18-8.18c0-4.52,3.66-8.18,8.18-8.18
			C53.27,0.4,56.93,4.06,56.93,8.59z"/>
	</g>
</g>
</svg>
