<?xml version="1.0" encoding="UTF-8"?>
<svg id="Capa_1" xmlns="http://www.w3.org/2000/svg" version="1.1" viewBox="0 0 200 50">
  <!-- Generator: Adobe Illustrator 30.2.1, SVG Export Plug-In . SVG Version: 2.1.1 Build 1)  -->
  <polygon points="0 11.37 8.75 11.37 15.23 32.03 15.31 32.03 21.79 11.37 30.54 11.37 30.54 38.63 25.31 38.63 25.31 16.13 25.23 16.13 17.88 38.63 12.65 38.63 5.31 16.13 5.23 16.21 5.23 38.63 0 38.63 0 11.37"/>
  <polygon points="35.54 11.37 51.63 11.37 51.63 15.67 41.01 15.67 41.01 22.39 50.73 22.39 50.73 26.68 41.01 26.68 41.01 34.33 51.71 34.33 51.71 38.63 35.54 38.63 35.54 11.37"/>
  <path d="M76.65,16.64c-2.11-.97-4.84-1.44-7.03-1.44-6.37,0-9.88,4.29-9.88,9.88s3.43,9.73,9.26,9.73c1.48,0,2.65-.15,3.59-.39v-7.11h-5.78v-4.3h11.02v14.68c-2.89.78-5.9,1.41-8.83,1.41-8.83,0-14.97-4.41-14.97-13.63s5.71-14.57,14.97-14.57c3.16,0,5.66.43,8.01,1.13l-.35,4.61h-.01Z"/>
  <path d="M90.77,11.37h6.17l10.7,27.26h-6.06l-2.34-6.25h-11.05l-2.38,6.25h-5.66s10.62-27.26,10.62-27.26ZM93.78,16.84h-.08l-3.95,11.25h7.97l-3.95-11.25h0Z"/>
  <polygon points="113.49 15.67 105.68 15.67 105.68 11.37 126.77 11.37 126.77 15.67 118.96 15.67 118.96 38.63 113.49 38.63 113.49 15.67"/>
  <polygon points="130.71 11.37 136.18 11.37 136.18 34.33 146.76 34.33 146.76 38.63 130.71 38.63 130.71 11.37"/>
  <path d="M160.83,10.9c8.55,0,13.35,5.78,13.35,14.02s-4.72,14.18-13.35,14.18-13.36-5.82-13.36-14.18,4.69-14.02,13.36-14.02M160.83,34.8c5.59,0,7.65-4.96,7.65-9.88s-2.23-9.73-7.65-9.73-7.66,4.92-7.66,9.73,2.07,9.88,7.66,9.88"/>
  <polygon points="177.58 11.37 184.3 11.37 194.69 31.75 194.77 31.75 194.77 11.37 200 11.37 200 38.63 193.32 38.63 182.89 18.24 182.82 18.24 182.82 38.63 177.58 38.63 177.58 11.37"/>
</svg>